<svg xmlns="http://www.w3.org/2000/svg" xmlns:xlink="http://www.w3.org/1999/xlink" contentStyleType="text/css" data-diagram-type="SEQUENCE" height="950px" preserveAspectRatio="none" style="width:993px;height:950px;background:#FFFFFF;" version="1.1" viewBox="0 0 993 950" width="993px" zoomAndPan="magnify"><title>Plateforme de covoiturage - Demande de r&#233;servation</title><defs/><g><text fill="#000000" font-family="sans-serif" font-size="14" font-weight="bold" lengthAdjust="spacing" textLength="420.8818" x="287.165" y="27.9951">Plateforme de covoiturage - Demande de r&#233;servation</text><rect fill="none" height="454.9297" style="stroke:#000000;stroke-width:1.5;" width="976.2119" x="10" y="397.7891"/><g><title>Passager</title><rect fill="#000000" fill-opacity="0.00000" height="751.125" width="8" x="50.7222" y="118.5938"/><line style="stroke:#181818;stroke-width:0.5;stroke-dasharray:5,5;" x1="54" x2="54" y1="118.5938" y2="869.7188"/></g><g><title>Conducteur</title><rect fill="#000000" fill-opacity="0.00000" height="751.125" width="8" x="139.1455" y="118.5938"/><line style="stroke:#181818;stroke-width:0.5;stroke-dasharray:5,5;" x1="142.4443" x2="142.4443" y1="118.5938" y2="869.7188"/></g><g><title>Interface Application</title><rect fill="#000000" fill-opacity="0.00000" height="751.125" width="8" x="297.7539" y="118.5938"/><line style="stroke:#181818;stroke-width:0.5;stroke-dasharray:5,5;" x1="301.0776" x2="301.0776" y1="118.5938" y2="869.7188"/></g><g><title>ReservationController</title><rect fill="#000000" fill-opacity="0.00000" height="751.125" width="8" x="555.7349" y="118.5938"/><line style="stroke:#181818;stroke-width:0.5;stroke-dasharray:5,5;" x1="559.3057" x2="559.3057" y1="118.5938" y2="869.7188"/></g><g><title>Base de donn.es</title><rect fill="#000000" fill-opacity="0.00000" height="751.125" width="8" x="761.0366" y="118.5938"/><line style="stroke:#181818;stroke-width:0.5;stroke-dasharray:5,5;" x1="764.9316" x2="764.9316" y1="118.5938" y2="869.7188"/></g><g><title>NotificationService</title><rect fill="#000000" fill-opacity="0.00000" height="751.125" width="8" x="903.1768" y="118.5938"/><line style="stroke:#181818;stroke-width:0.5;stroke-dasharray:5,5;" x1="907.1416" x2="907.1416" y1="118.5938" y2="869.7188"/></g><g class="participant participant-head" data-participant="Passager"><text fill="#000000" font-family="sans-serif" font-size="14" lengthAdjust="spacing" textLength="63.4443" x="20" y="115.292">Passager</text><ellipse cx="54.7222" cy="50.7969" fill="#E2E2F0" rx="8" ry="8" style="stroke:#181818;stroke-width:0.5;"/><path d="M54.7222,58.7969 L54.7222,85.7969 M41.7222,66.7969 L67.7222,66.7969 M54.7222,85.7969 L41.7222,100.7969 M54.7222,85.7969 L67.7222,100.7969" fill="none" style="stroke:#181818;stroke-width:0.5;"/></g><g class="participant participant-tail" data-participant="Passager"><text fill="#000000" font-family="sans-serif" font-size="14" lengthAdjust="spacing" textLength="63.4443" x="20" y="881.7139">Passager</text><ellipse cx="54.7222" cy="893.5156" fill="#E2E2F0" rx="8" ry="8" style="stroke:#181818;stroke-width:0.5;"/><path d="M54.7222,901.5156 L54.7222,928.5156 M41.7222,909.5156 L67.7222,909.5156 M54.7222,928.5156 L41.7222,943.5156 M54.7222,928.5156 L67.7222,943.5156" fill="none" style="stroke:#181818;stroke-width:0.5;"/></g><g class="participant participant-head" data-participant="Conducteur"><text fill="#000000" font-family="sans-serif" font-size="14" lengthAdjust="spacing" textLength="81.4023" x="99.4443" y="115.292">Conducteur</text><ellipse cx="143.1455" cy="50.7969" fill="#E2E2F0" rx="8" ry="8" style="stroke:#181818;stroke-width:0.5;"/><path d="M143.1455,58.7969 L143.1455,85.7969 M130.1455,66.7969 L156.1455,66.7969 M143.1455,85.7969 L130.1455,100.7969 M143.1455,85.7969 L156.1455,100.7969" fill="none" style="stroke:#181818;stroke-width:0.5;"/></g><g class="participant participant-tail" data-participant="Conducteur"><text fill="#000000" font-family="sans-serif" font-size="14" lengthAdjust="spacing" textLength="81.4023" x="99.4443" y="881.7139">Conducteur</text><ellipse cx="143.1455" cy="893.5156" fill="#E2E2F0" rx="8" ry="8" style="stroke:#181818;stroke-width:0.5;"/><path d="M143.1455,901.5156 L143.1455,928.5156 M130.1455,909.5156 L156.1455,909.5156 M143.1455,928.5156 L130.1455,943.5156 M143.1455,928.5156 L156.1455,943.5156" fill="none" style="stroke:#181818;stroke-width:0.5;"/></g><g class="participant participant-head" data-participant="UI"><text fill="#000000" font-family="sans-serif" font-size="14" lengthAdjust="spacing" textLength="145.3525" x="226.0776" y="115.292">Interface Application</text><path d="M281.2539,74.2969 L281.2539,98.2969 M281.2539,86.2969 L298.2539,86.2969" fill="none" style="stroke:#181818;stroke-width:0.5;"/><ellipse cx="310.2539" cy="86.2969" fill="#E2E2F0" rx="12" ry="12" style="stroke:#181818;stroke-width:0.5;"/></g><g class="participant participant-tail" data-participant="UI"><text fill="#000000" font-family="sans-serif" font-size="14" lengthAdjust="spacing" textLength="145.3525" x="226.0776" y="881.7139">Interface Application</text><path d="M281.2539,889.0156 L281.2539,913.0156 M281.2539,901.0156 L298.2539,901.0156" fill="none" style="stroke:#181818;stroke-width:0.5;"/><ellipse cx="310.2539" cy="901.0156" fill="#E2E2F0" rx="12" ry="12" style="stroke:#181818;stroke-width:0.5;"/></g><g class="participant participant-head" data-participant="RC"><text fill="#000000" font-family="sans-serif" font-size="14" lengthAdjust="spacing" textLength="152.8584" x="480.3057" y="115.292">ReservationController</text><ellipse cx="559.7349" cy="86.2969" fill="#E2E2F0" rx="12" ry="12" style="stroke:#181818;stroke-width:0.5;"/><polygon fill="#181818" points="555.7349,74.2969,561.7349,69.2969,559.7349,74.2969,561.7349,79.2969,555.7349,74.2969" style="stroke:#181818;stroke-width:1;"/></g><g class="participant participant-tail" data-participant="RC"><text fill="#000000" font-family="sans-serif" font-size="14" lengthAdjust="spacing" textLength="152.8584" x="480.3057" y="881.7139">ReservationController</text><ellipse cx="559.7349" cy="901.0156" fill="#E2E2F0" rx="12" ry="12" style="stroke:#181818;stroke-width:0.5;"/><polygon fill="#181818" points="555.7349,889.0156,561.7349,884.0156,559.7349,889.0156,561.7349,894.0156,555.7349,889.0156" style="stroke:#181818;stroke-width:1;"/></g><g class="participant participant-head" data-participant="DB"><text fill="#000000" font-family="sans-serif" font-size="14" lengthAdjust="spacing" textLength="120.21" x="701.9316" y="115.292">Base de donn&#233;es</text><path d="M747.0366,66.2969 C747.0366,56.2969 765.0366,56.2969 765.0366,56.2969 C765.0366,56.2969 783.0366,56.2969 783.0366,66.2969 L783.0366,92.2969 C783.0366,102.2969 765.0366,102.2969 765.0366,102.2969 C765.0366,102.2969 747.0366,102.2969 747.0366,92.2969 L747.0366,66.2969" fill="#E2E2F0" style="stroke:#181818;stroke-width:0.5;"/><path d="M747.0366,66.2969 C747.0366,76.2969 765.0366,76.2969 765.0366,76.2969 C765.0366,76.2969 783.0366,76.2969 783.0366,66.2969" fill="none" style="stroke:#181818;stroke-width:0.5;"/></g><g class="participant participant-tail" data-participant="DB"><text fill="#000000" font-family="sans-serif" font-size="14" lengthAdjust="spacing" textLength="120.21" x="701.9316" y="881.7139">Base de donn&#233;es</text><path d="M747.0366,895.0156 C747.0366,885.0156 765.0366,885.0156 765.0366,885.0156 C765.0366,885.0156 783.0366,885.0156 783.0366,895.0156 L783.0366,921.0156 C783.0366,931.0156 765.0366,931.0156 765.0366,931.0156 C765.0366,931.0156 747.0366,931.0156 747.0366,921.0156 L747.0366,895.0156" fill="#E2E2F0" style="stroke:#181818;stroke-width:0.5;"/><path d="M747.0366,895.0156 C747.0366,905.0156 765.0366,905.0156 765.0366,905.0156 C765.0366,905.0156 783.0366,905.0156 783.0366,895.0156" fill="none" style="stroke:#181818;stroke-width:0.5;"/></g><g class="participant participant-head" data-participant="NS"><text fill="#000000" font-family="sans-serif" font-size="14" lengthAdjust="spacing" textLength="132.0703" x="838.1416" y="115.292">NotificationService</text><ellipse cx="907.1768" cy="86.2969" fill="#E2E2F0" rx="12" ry="12" style="stroke:#181818;stroke-width:0.5;"/><polygon fill="#181818" points="903.1768,74.2969,909.1768,69.2969,907.1768,74.2969,909.1768,79.2969,903.1768,74.2969" style="stroke:#181818;stroke-width:1;"/></g><g class="participant participant-tail" data-participant="NS"><text fill="#000000" font-family="sans-serif" font-size="14" lengthAdjust="spacing" textLength="132.0703" x="838.1416" y="881.7139">NotificationService</text><ellipse cx="907.1768" cy="901.0156" fill="#E2E2F0" rx="12" ry="12" style="stroke:#181818;stroke-width:0.5;"/><polygon fill="#181818" points="903.1768,889.0156,909.1768,884.0156,907.1768,889.0156,909.1768,894.0156,903.1768,889.0156" style="stroke:#181818;stroke-width:1;"/></g><g class="message" data-participant-1="Passager" data-participant-2="UI"><polygon fill="#181818" points="289.7539,145.7266,299.7539,149.7266,289.7539,153.7266,293.7539,149.7266" style="stroke:#181818;stroke-width:1;"/><line style="stroke:#181818;stroke-width:1;" x1="54.7222" x2="295.7539" y1="149.7266" y2="149.7266"/><text fill="#000000" font-family="sans-serif" font-size="13" lengthAdjust="spacing" textLength="113.7373" x="61.7222" y="144.6606">Rechercher trajet</text></g><g class="message" data-participant-1="UI" data-participant-2="DB"><polygon fill="#181818" points="753.0366,174.8594,763.0366,178.8594,753.0366,182.8594,757.0366,178.8594" style="stroke:#181818;stroke-width:1;"/><line style="stroke:#181818;stroke-width:1;" x1="301.7539" x2="759.0366" y1="178.8594" y2="178.8594"/><text fill="#000000" font-family="sans-serif" font-size="13" lengthAdjust="spacing" textLength="187.1479" x="308.7539" y="173.7935">r&#233;cup&#233;rer trajets disponibles</text></g><g class="message" data-participant-1="DB" data-participant-2="UI"><polygon fill="#181818" points="312.7539,203.9922,302.7539,207.9922,312.7539,211.9922,308.7539,207.9922" style="stroke:#181818;stroke-width:1;"/><line style="stroke:#181818;stroke-width:1;stroke-dasharray:2,2;" x1="306.7539" x2="764.0366" y1="207.9922" y2="207.9922"/><text fill="#000000" font-family="sans-serif" font-size="13" lengthAdjust="spacing" textLength="100.2676" x="318.7539" y="202.9263">liste des trajets</text></g><g class="message" data-participant-1="Passager" data-participant-2="UI"><polygon fill="#181818" points="289.7539,233.125,299.7539,237.125,289.7539,241.125,293.7539,237.125" style="stroke:#181818;stroke-width:1;"/><line style="stroke:#181818;stroke-width:1;" x1="54.7222" x2="295.7539" y1="237.125" y2="237.125"/><text fill="#000000" font-family="sans-serif" font-size="13" lengthAdjust="spacing" textLength="142.251" x="61.7222" y="232.0591">Consulter d&#233;tail trajet</text></g><g class="message" data-participant-1="UI" data-participant-2="Passager"><polygon fill="#181818" points="65.7222,262.2578,55.7222,266.2578,65.7222,270.2578,61.7222,266.2578" style="stroke:#181818;stroke-width:1;"/><line style="stroke:#181818;stroke-width:1;stroke-dasharray:2,2;" x1="59.7222" x2="300.7539" y1="266.2578" y2="266.2578"/><text fill="#000000" font-family="sans-serif" font-size="13" lengthAdjust="spacing" textLength="135.624" x="71.7222" y="261.1919">afficher informations</text></g><g class="message" data-participant-1="Passager" data-participant-2="UI"><polygon fill="#181818" points="289.7539,291.3906,299.7539,295.3906,289.7539,299.3906,293.7539,295.3906" style="stroke:#181818;stroke-width:1;"/><line style="stroke:#181818;stroke-width:1;" x1="54.7222" x2="295.7539" y1="295.3906" y2="295.3906"/><text fill="#000000" font-family="sans-serif" font-size="13" lengthAdjust="spacing" textLength="146.6245" x="61.7222" y="290.3247">Demander r&#233;servation</text></g><g class="message" data-participant-1="UI" data-participant-2="RC"><polygon fill="#181818" points="547.7349,320.5234,557.7349,324.5234,547.7349,328.5234,551.7349,324.5234" style="stroke:#181818;stroke-width:1;"/><line style="stroke:#181818;stroke-width:1;" x1="301.7539" x2="553.7349" y1="324.5234" y2="324.5234"/><text fill="#000000" font-family="sans-serif" font-size="13" lengthAdjust="spacing" textLength="233.981" x="308.7539" y="319.4575">creerDemande(passagerId, trajetId)</text></g><g class="message" data-participant-1="RC" data-participant-2="DB"><polygon fill="#181818" points="753.0366,349.6563,763.0366,353.6563,753.0366,357.6563,757.0366,353.6563" style="stroke:#181818;stroke-width:1;"/><line style="stroke:#181818;stroke-width:1;" x1="559.7349" x2="759.0366" y1="353.6563" y2="353.6563"/><text fill="#000000" font-family="sans-serif" font-size="13" lengthAdjust="spacing" textLength="169.5205" x="566.7349" y="348.5903">v&#233;rifier places disponibles</text></g><g class="message" data-participant-1="DB" data-participant-2="RC"><polygon fill="#181818" points="570.7349,378.7891,560.7349,382.7891,570.7349,386.7891,566.7349,382.7891" style="stroke:#181818;stroke-width:1;"/><line style="stroke:#181818;stroke-width:1;stroke-dasharray:2,2;" x1="564.7349" x2="764.0366" y1="382.7891" y2="382.7891"/><text fill="#000000" font-family="sans-serif" font-size="13" lengthAdjust="spacing" textLength="50.1274" x="576.7349" y="377.7231">r&#233;sultat</text></g><path d="M10,397.7891 L74.4429,397.7891 L74.4429,404.9219 L64.4429,414.9219 L10,414.9219 L10,397.7891" fill="#EEEEEE" style="stroke:#000000;stroke-width:1.5;"/><rect fill="none" height="454.9297" style="stroke:#000000;stroke-width:1.5;" width="976.2119" x="10" y="397.7891"/><text fill="#000000" font-family="sans-serif" font-size="13" font-weight="bold" lengthAdjust="spacing" textLength="19.4429" x="25" y="410.856">alt</text><text fill="#000000" font-family="sans-serif" font-size="11" font-weight="bold" lengthAdjust="spacing" textLength="124.5449" x="89.4429" y="409.9995">[Places disponibles]</text><g class="message" data-participant-1="RC" data-participant-2="DB"><polygon fill="#181818" points="753.0366,447.1875,763.0366,451.1875,753.0366,455.1875,757.0366,451.1875" style="stroke:#181818;stroke-width:1;"/><line style="stroke:#181818;stroke-width:1;" x1="559.7349" x2="759.0366" y1="451.1875" y2="451.1875"/><text fill="#000000" font-family="sans-serif" font-size="13" lengthAdjust="spacing" textLength="111.9854" x="566.7349" y="430.9888">cr&#233;er r&#233;servation</text><text fill="#000000" font-family="sans-serif" font-size="13" lengthAdjust="spacing" textLength="150.8774" x="566.7349" y="446.1216">(statut = EN_ATTENTE)</text></g><g class="message" data-participant-1="DB" data-participant-2="RC"><polygon fill="#181818" points="570.7349,476.3203,560.7349,480.3203,570.7349,484.3203,566.7349,480.3203" style="stroke:#181818;stroke-width:1;"/><line style="stroke:#181818;stroke-width:1;stroke-dasharray:2,2;" x1="564.7349" x2="764.0366" y1="480.3203" y2="480.3203"/><text fill="#000000" font-family="sans-serif" font-size="13" lengthAdjust="spacing" textLength="114.6387" x="576.7349" y="475.2544">r&#233;servation cr&#233;&#233;e</text></g><g class="message" data-participant-1="RC" data-participant-2="NS"><polygon fill="#181818" points="895.1768,505.4531,905.1768,509.4531,895.1768,513.4531,899.1768,509.4531" style="stroke:#181818;stroke-width:1;"/><line style="stroke:#181818;stroke-width:1;" x1="559.7349" x2="901.1768" y1="509.4531" y2="509.4531"/><text fill="#000000" font-family="sans-serif" font-size="13" lengthAdjust="spacing" textLength="124.2236" x="566.7349" y="504.3872">notifier conducteur</text></g><g class="message" data-participant-1="NS" data-participant-2="Conducteur"><polygon fill="#181818" points="154.1455,534.5859,144.1455,538.5859,154.1455,542.5859,150.1455,538.5859" style="stroke:#181818;stroke-width:1;"/><line style="stroke:#181818;stroke-width:1;stroke-dasharray:2,2;" x1="148.1455" x2="906.1768" y1="538.5859" y2="538.5859"/><text fill="#000000" font-family="sans-serif" font-size="13" lengthAdjust="spacing" textLength="161.7065" x="160.1455" y="533.52">nouvelle demande re&#231;ue</text></g><g class="message" data-participant-1="Conducteur" data-participant-2="UI"><polygon fill="#181818" points="289.7539,563.7188,299.7539,567.7188,289.7539,571.7188,293.7539,567.7188" style="stroke:#181818;stroke-width:1;"/><line style="stroke:#181818;stroke-width:1;" x1="143.1455" x2="295.7539" y1="567.7188" y2="567.7188"/><text fill="#000000" font-family="sans-serif" font-size="13" lengthAdjust="spacing" textLength="134.6084" x="150.1455" y="562.6528">Consulter demandes</text></g><g class="message" data-participant-1="UI" data-participant-2="RC"><polygon fill="#181818" points="547.7349,592.8516,557.7349,596.8516,547.7349,600.8516,551.7349,596.8516" style="stroke:#181818;stroke-width:1;"/><line style="stroke:#181818;stroke-width:1;" x1="301.7539" x2="553.7349" y1="596.8516" y2="596.8516"/><text fill="#000000" font-family="sans-serif" font-size="13" lengthAdjust="spacing" textLength="230.9087" x="308.7539" y="591.7856">accepterReservation(reservationId)</text></g><g class="message" data-participant-1="RC" data-participant-2="DB"><polygon fill="#181818" points="753.0366,621.9844,763.0366,625.9844,753.0366,629.9844,757.0366,625.9844" style="stroke:#181818;stroke-width:1;"/><line style="stroke:#181818;stroke-width:1;" x1="559.7349" x2="759.0366" y1="625.9844" y2="625.9844"/><text fill="#000000" font-family="sans-serif" font-size="13" lengthAdjust="spacing" textLength="173.2275" x="566.7349" y="620.9185">mettre statut = ACCEPTEE</text></g><g class="message" data-participant-1="RC" data-participant-2="DB"><polygon fill="#181818" points="753.0366,651.1172,763.0366,655.1172,753.0366,659.1172,757.0366,655.1172" style="stroke:#181818;stroke-width:1;"/><line style="stroke:#181818;stroke-width:1;" x1="559.7349" x2="759.0366" y1="655.1172" y2="655.1172"/><text fill="#000000" font-family="sans-serif" font-size="13" lengthAdjust="spacing" textLength="181.3018" x="566.7349" y="650.0513">diminuer places disponibles</text></g><g class="message" data-participant-1="RC" data-participant-2="NS"><polygon fill="#181818" points="895.1768,680.25,905.1768,684.25,895.1768,688.25,899.1768,684.25" style="stroke:#181818;stroke-width:1;"/><line style="stroke:#181818;stroke-width:1;" x1="559.7349" x2="901.1768" y1="684.25" y2="684.25"/><text fill="#000000" font-family="sans-serif" font-size="13" lengthAdjust="spacing" textLength="109.8906" x="566.7349" y="679.1841">notifier passager</text></g><g class="message" data-participant-1="NS" data-participant-2="Passager"><polygon fill="#181818" points="65.7222,709.3828,55.7222,713.3828,65.7222,717.3828,61.7222,713.3828" style="stroke:#181818;stroke-width:1;"/><line style="stroke:#181818;stroke-width:1;stroke-dasharray:2,2;" x1="59.7222" x2="906.1768" y1="713.3828" y2="713.3828"/><text fill="#000000" font-family="sans-serif" font-size="13" lengthAdjust="spacing" textLength="137.7568" x="71.7222" y="708.3169">r&#233;servation accept&#233;e</text></g><g class="message" data-participant-1="RC" data-participant-2="UI"><polygon fill="#181818" points="312.7539,738.5156,302.7539,742.5156,312.7539,746.5156,308.7539,742.5156" style="stroke:#181818;stroke-width:1;"/><line style="stroke:#181818;stroke-width:1;stroke-dasharray:2,2;" x1="306.7539" x2="558.7349" y1="742.5156" y2="742.5156"/><text fill="#000000" font-family="sans-serif" font-size="13" lengthAdjust="spacing" textLength="82.4053" x="318.7539" y="737.4497">confirmation</text></g><g class="message" data-participant-1="UI" data-participant-2="Conducteur"><polygon fill="#181818" points="154.1455,767.6484,144.1455,771.6484,154.1455,775.6484,150.1455,771.6484" style="stroke:#181818;stroke-width:1;"/><line style="stroke:#181818;stroke-width:1;stroke-dasharray:2,2;" x1="148.1455" x2="300.7539" y1="771.6484" y2="771.6484"/><text fill="#000000" font-family="sans-serif" font-size="13" lengthAdjust="spacing" textLength="125.106" x="160.1455" y="766.5825">demande accept&#233;e</text></g><line style="stroke:#000000;stroke-width:1;stroke-dasharray:2,2;" x1="10" x2="986.2119" y1="780.6484" y2="780.6484"/><text fill="#000000" font-family="sans-serif" font-size="11" font-weight="bold" lengthAdjust="spacing" textLength="100.6274" x="15" y="790.8589">[Trajet complet]</text><g class="message" data-participant-1="RC" data-participant-2="UI"><polygon fill="#181818" points="312.7539,811.5859,302.7539,815.5859,312.7539,819.5859,308.7539,815.5859" style="stroke:#181818;stroke-width:1;"/><line style="stroke:#181818;stroke-width:1;stroke-dasharray:2,2;" x1="306.7539" x2="558.7349" y1="815.5859" y2="815.5859"/><text fill="#000000" font-family="sans-serif" font-size="13" lengthAdjust="spacing" textLength="149.5" x="318.7539" y="810.52">erreur "plus de places"</text></g><g class="message" data-participant-1="UI" data-participant-2="Passager"><polygon fill="#181818" points="65.7222,840.7188,55.7222,844.7188,65.7222,848.7188,61.7222,844.7188" style="stroke:#181818;stroke-width:1;"/><line style="stroke:#181818;stroke-width:1;stroke-dasharray:2,2;" x1="59.7222" x2="300.7539" y1="844.7188" y2="844.7188"/><text fill="#000000" font-family="sans-serif" font-size="13" lengthAdjust="spacing" textLength="112.0171" x="71.7222" y="839.6528">afficher message</text></g><!--SRC=[TLFHgk8m47tFLmnzyiBw0nVsWjO- -2AYxjl24fDnRvOqAPDKk5-q-1t-s4xILclf2afjpfoPS-OaccWHzbP6l7Yg4JI2ybTlOaloDy8IDbXBf_C1tMy1wIgZyKu8gQ8dsCiG64Zztz8xtQg8BGbnzgtJahwWsBg8T94AOTKqrgZCK80Cy6Chb7UHl8NYW0_sidjdaJBgK0ejeppBW52iqsyQo3jtls78YCtwoRFpqLpw9aTcD0epPdSKOXWNbX_S6zxXWEeJANqXalo3KV1hFjoi-P05gxQvt-Xn6a2Rq7XdpXQ3OD1o8B8cn3HN690ppLXMQ2rx0Vf-YzBOSKy6FGhUGLvOGfhAkBIOB6QEibyFlIwdqt0e6Q08aNhKekdBj_fRttghtuHWu23vochPFIPiB2ziLc_cJVrOYuoS11jJXAPeuC-8MN75PCwVRX6OeOtm7QhThzNfLErErLkkdFOQQZ8FCuaH_-x889VNpXtKCuC9meU9w9dCZ6sloF7YVNNf9hp_RNlE4N9cSLr1fsvairGA6mQCGhoWvtEsUM98ZJ4ImiE1LLbM-rDLJN7QrCQrynlvhmd3fiSMZEBrucWt-ukdWt3sycBw-3qaJzqSJ1pneELBUie9OuwwiHpoAJSIfVgYiMr85xgJLupRp5s86lCxWKx_0m00]--></g></svg>