<?plantuml 1.2026.2beta3?><svg xmlns="http://www.w3.org/2000/svg" xmlns:xlink="http://www.w3.org/1999/xlink" contentStyleType="text/css" data-diagram-type="CLASS" height="868px" preserveAspectRatio="none" style="width:889px;height:868px;background:#FFFFFF;" version="1.1" viewBox="0 0 889 868" width="889px" zoomAndPan="magnify"><title>Plateforme de covoiturage - Diagramme de classes final</title><defs/><g><g class="title" data-source-line="1"><text fill="#000000" font-family="sans-serif" font-size="14" font-weight="bold" lengthAdjust="spacing" textLength="443.3926" x="216.2691" y="22.9951">Plateforme de covoiturage - Diagramme de classes final</text></g><!--class Role--><g class="entity" data-qualified-name="Role" data-source-line="9" id="ent0002"><rect fill="#F1F1F1" height="96.8906" rx="2.5" ry="2.5" style="stroke:#181818;stroke-width:0.5;" width="137.2822" x="58.02" y="616.0369"/><ellipse cx="107.0132" cy="632.0369" fill="#EB937F" rx="11" ry="11" style="stroke:#181818;stroke-width:1;"/><path d="M111.1225,638.0369 L103.4038,638.0369 L103.4038,625.6463 L111.1225,625.6463 L111.1225,627.8025 L105.8569,627.8025 L105.8569,630.4744 L110.6225,630.4744 L110.6225,632.6306 L105.8569,632.6306 L105.8569,635.8806 L111.1225,635.8806 L111.1225,638.0369 Z " fill="#000000"/><text fill="#000000" font-family="sans-serif" font-size="14" lengthAdjust="spacing" textLength="30.7959" x="127.5132" y="636.8836">Role</text><line style="stroke:#181818;stroke-width:0.5;" x1="59.02" x2="194.3022" y1="648.0369" y2="648.0369"/><text fill="#000000" font-family="sans-serif" font-size="14" lengthAdjust="spacing" textLength="74.792" x="64.02" y="665.032">PASSAGER</text><text fill="#000000" font-family="sans-serif" font-size="14" lengthAdjust="spacing" textLength="99.4424" x="64.02" y="681.3289">CONDUCTEUR</text><text fill="#000000" font-family="sans-serif" font-size="14" lengthAdjust="spacing" textLength="125.2822" x="64.02" y="697.6257">ADMINISTRATEUR</text><line style="stroke:#181818;stroke-width:0.5;" x1="59.02" x2="194.3022" y1="704.9275" y2="704.9275"/></g><!--class StatutTrajet--><g class="entity" data-qualified-name="StatutTrajet" data-source-line="15" id="ent0003"><rect fill="#F1F1F1" height="113.1875" rx="2.5" ry="2.5" style="stroke:#181818;stroke-width:0.5;" width="115.6855" x="68.82" y="747.8869"/><ellipse cx="83.82" cy="763.8869" fill="#EB937F" rx="11" ry="11" style="stroke:#181818;stroke-width:1;"/><path d="M87.9294,769.8869 L80.2106,769.8869 L80.2106,757.4962 L87.9294,757.4962 L87.9294,759.6525 L82.6638,759.6525 L82.6638,762.3244 L87.4294,762.3244 L87.4294,764.4806 L82.6638,764.4806 L82.6638,767.7306 L87.9294,767.7306 L87.9294,769.8869 Z " fill="#000000"/><text fill="#000000" font-family="sans-serif" font-size="14" lengthAdjust="spacing" textLength="83.6855" x="97.82" y="768.7336">StatutTrajet</text><line style="stroke:#181818;stroke-width:0.5;" x1="69.82" x2="183.5055" y1="779.8869" y2="779.8869"/><text fill="#000000" font-family="sans-serif" font-size="14" lengthAdjust="spacing" textLength="57.9688" x="74.82" y="796.882">OUVERT</text><text fill="#000000" font-family="sans-serif" font-size="14" lengthAdjust="spacing" textLength="66.5137" x="74.82" y="813.1789">COMPLET</text><text fill="#000000" font-family="sans-serif" font-size="14" lengthAdjust="spacing" textLength="57.415" x="74.82" y="829.4757">ANNULE</text><text fill="#000000" font-family="sans-serif" font-size="14" lengthAdjust="spacing" textLength="62.6514" x="74.82" y="845.7726">TERMINE</text><line style="stroke:#181818;stroke-width:0.5;" x1="69.82" x2="183.5055" y1="853.0744" y2="853.0744"/></g><!--class StatutReservation--><g class="entity" data-qualified-name="StatutReservation" data-source-line="22" id="ent0004"><rect fill="#F1F1F1" height="113.1875" rx="2.5" ry="2.5" style="stroke:#181818;stroke-width:0.5;" width="158.4922" x="367.52" y="607.8869"/><ellipse cx="382.52" cy="623.8869" fill="#EB937F" rx="11" ry="11" style="stroke:#181818;stroke-width:1;"/><path d="M386.6294,629.8869 L378.9106,629.8869 L378.9106,617.4962 L386.6294,617.4962 L386.6294,619.6525 L381.3638,619.6525 L381.3638,622.3244 L386.1294,622.3244 L386.1294,624.4806 L381.3638,624.4806 L381.3638,627.7306 L386.6294,627.7306 L386.6294,629.8869 Z " fill="#000000"/><text fill="#000000" font-family="sans-serif" font-size="14" lengthAdjust="spacing" textLength="126.4922" x="396.52" y="628.7336">StatutReservation</text><line style="stroke:#181818;stroke-width:0.5;" x1="368.52" x2="525.0122" y1="639.8869" y2="639.8869"/><text fill="#000000" font-family="sans-serif" font-size="14" lengthAdjust="spacing" textLength="89.7148" x="373.52" y="656.882">EN_ATTENTE</text><text fill="#000000" font-family="sans-serif" font-size="14" lengthAdjust="spacing" textLength="72.6592" x="373.52" y="673.1789">ACCEPTEE</text><text fill="#000000" font-family="sans-serif" font-size="14" lengthAdjust="spacing" textLength="63.4512" x="373.52" y="689.4757">REFUSEE</text><text fill="#000000" font-family="sans-serif" font-size="14" lengthAdjust="spacing" textLength="66.2607" x="373.52" y="705.7726">ANNULEE</text><line style="stroke:#181818;stroke-width:0.5;" x1="368.52" x2="525.0122" y1="713.0744" y2="713.0744"/></g><!--class Utilisateur--><g class="entity" data-qualified-name="Utilisateur" data-source-line="33" id="ent0005"><rect fill="#F1F1F1" height="227.2656" rx="2.5" ry="2.5" style="stroke:#181818;stroke-width:0.5;" width="195.0322" x="349.25" y="257.8469"/><ellipse cx="406.5112" cy="273.8469" fill="#ADD1B2" rx="11" ry="11" style="stroke:#181818;stroke-width:1;"/><path d="M409.48,279.4875 Q408.9019,279.7844 408.2612,279.925 Q407.6206,280.0812 406.9175,280.0812 Q404.4175,280.0812 403.0894,278.4406 Q401.7769,276.7844 401.7769,273.6594 Q401.7769,270.5344 403.0894,268.8781 Q404.4175,267.2219 406.9175,267.2219 Q407.6206,267.2219 408.2612,267.3781 Q408.9175,267.5344 409.48,267.8312 L409.48,270.55 Q408.855,269.9719 408.2612,269.7062 Q407.6675,269.425 407.0425,269.425 Q405.6987,269.425 405.0112,270.5031 Q404.3237,271.5656 404.3237,273.6594 Q404.3237,275.7531 405.0112,276.8312 Q405.6987,277.8937 407.0425,277.8937 Q407.6675,277.8937 408.2612,277.6281 Q408.855,277.3469 409.48,276.7687 L409.48,279.4875 Z " fill="#000000"/><text fill="#000000" font-family="sans-serif" font-size="14" lengthAdjust="spacing" textLength="72.0098" x="427.0112" y="278.6936">Utilisateur</text><line style="stroke:#181818;stroke-width:0.5;" x1="350.25" x2="543.2822" y1="289.8469" y2="289.8469"/><text fill="#000000" font-family="sans-serif" font-size="14" lengthAdjust="spacing" textLength="121.707" x="355.25" y="306.842">-idUtilisateur : int</text><text fill="#000000" font-family="sans-serif" font-size="14" lengthAdjust="spacing" textLength="91.5264" x="355.25" y="323.1389">-nom : String</text><text fill="#000000" font-family="sans-serif" font-size="14" lengthAdjust="spacing" textLength="114.7822" x="355.25" y="339.4357">-prenom : String</text><text fill="#000000" font-family="sans-serif" font-size="14" lengthAdjust="spacing" textLength="113.4902" x="355.25" y="355.7326">-courriel : String</text><text fill="#000000" font-family="sans-serif" font-size="14" lengthAdjust="spacing" textLength="130.8672" x="355.25" y="372.0295">-telephone : String</text><text fill="#000000" font-family="sans-serif" font-size="14" lengthAdjust="spacing" textLength="183.0322" x="355.25" y="388.3264">-motDePasseHash : String</text><text fill="#000000" font-family="sans-serif" font-size="14" lengthAdjust="spacing" textLength="76.2891" x="355.25" y="404.6232">-role : Role</text><text fill="#000000" font-family="sans-serif" font-size="14" lengthAdjust="spacing" textLength="105.2256" x="355.25" y="420.9201">-actif : boolean</text><line style="stroke:#181818;stroke-width:1;" x1="350.25" x2="543.2822" y1="428.2219" y2="428.2219"/><text fill="#000000" font-family="sans-serif" font-size="14" lengthAdjust="spacing" textLength="104.5215" x="355.25" y="445.217">+authentifier()</text><text fill="#000000" font-family="sans-serif" font-size="14" lengthAdjust="spacing" textLength="110.332" x="355.25" y="461.5139">+deconnecter()</text><text fill="#000000" font-family="sans-serif" font-size="14" lengthAdjust="spacing" textLength="116.293" x="355.25" y="477.8107">+modifierProfil()</text></g><!--class Passager--><g class="entity" data-qualified-name="Passager" data-source-line="48" id="ent0006"><rect fill="#F1F1F1" height="96.8906" rx="2.5" ry="2.5" style="stroke:#181818;stroke-width:0.5;" width="190.1855" x="31.57" y="469.0369"/><ellipse cx="90.6906" cy="485.0369" fill="#ADD1B2" rx="11" ry="11" style="stroke:#181818;stroke-width:1;"/><path d="M93.6594,490.6775 Q93.0812,490.9744 92.4406,491.115 Q91.8,491.2712 91.0969,491.2712 Q88.5969,491.2712 87.2687,489.6306 Q85.9562,487.9744 85.9562,484.8494 Q85.9562,481.7244 87.2687,480.0681 Q88.5969,478.4119 91.0969,478.4119 Q91.8,478.4119 92.4406,478.5681 Q93.0969,478.7244 93.6594,479.0212 L93.6594,481.74 Q93.0344,481.1619 92.4406,480.8962 Q91.8469,480.615 91.2219,480.615 Q89.8781,480.615 89.1906,481.6931 Q88.5031,482.7556 88.5031,484.8494 Q88.5031,486.9431 89.1906,488.0212 Q89.8781,489.0837 91.2219,489.0837 Q91.8469,489.0837 92.4406,488.8181 Q93.0344,488.5369 93.6594,487.9587 L93.6594,490.6775 Z " fill="#000000"/><text fill="#000000" font-family="sans-serif" font-size="14" lengthAdjust="spacing" textLength="63.4443" x="111.1906" y="489.8836">Passager</text><line style="stroke:#181818;stroke-width:0.5;" x1="32.57" x2="220.7555" y1="501.0369" y2="501.0369"/><line style="stroke:#181818;stroke-width:1;" x1="32.57" x2="220.7555" y1="509.0369" y2="509.0369"/><text fill="#000000" font-family="sans-serif" font-size="14" lengthAdjust="spacing" textLength="139.7813" x="37.57" y="526.032">+rechercherTrajet()</text><text fill="#000000" font-family="sans-serif" font-size="14" lengthAdjust="spacing" textLength="178.1855" x="37.57" y="542.3289">+demanderReservation()</text><text fill="#000000" font-family="sans-serif" font-size="14" lengthAdjust="spacing" textLength="159.7969" x="37.57" y="558.6257">+annulerReservation()</text></g><!--class Conducteur--><g class="entity" data-qualified-name="Conducteur" data-source-line="55" id="ent0007"><rect fill="#F1F1F1" height="145.7813" rx="2.5" ry="2.5" style="stroke:#181818;stroke-width:0.5;" width="239.3291" x="7" y="101.5969"/><ellipse cx="81.7134" cy="117.5969" fill="#ADD1B2" rx="11" ry="11" style="stroke:#181818;stroke-width:1;"/><path d="M84.6821,123.2375 Q84.104,123.5344 83.4634,123.675 Q82.8228,123.8312 82.1196,123.8312 Q79.6196,123.8312 78.2915,122.1906 Q76.979,120.5344 76.979,117.4094 Q76.979,114.2844 78.2915,112.6281 Q79.6196,110.9719 82.1196,110.9719 Q82.8228,110.9719 83.4634,111.1281 Q84.1196,111.2844 84.6821,111.5812 L84.6821,114.3 Q84.0571,113.7219 83.4634,113.4562 Q82.8696,113.175 82.2446,113.175 Q80.9009,113.175 80.2134,114.2531 Q79.5259,115.3156 79.5259,117.4094 Q79.5259,119.5031 80.2134,120.5812 Q80.9009,121.6437 82.2446,121.6437 Q82.8696,121.6437 83.4634,121.3781 Q84.0571,121.0969 84.6821,120.5187 L84.6821,123.2375 Z " fill="#000000"/><text fill="#000000" font-family="sans-serif" font-size="14" lengthAdjust="spacing" textLength="81.4023" x="102.2134" y="122.4436">Conducteur</text><line style="stroke:#181818;stroke-width:0.5;" x1="8" x2="245.3291" y1="133.5969" y2="133.5969"/><text fill="#000000" font-family="sans-serif" font-size="14" lengthAdjust="spacing" textLength="227.3291" x="13" y="150.592">-modeConducteurActif : boolean</text><line style="stroke:#181818;stroke-width:1;" x1="8" x2="245.3291" y1="157.8937" y2="157.8937"/><text fill="#000000" font-family="sans-serif" font-size="14" lengthAdjust="spacing" textLength="125.8564" x="13" y="174.8889">+proposerTrajet()</text><text fill="#000000" font-family="sans-serif" font-size="14" lengthAdjust="spacing" textLength="121.7002" x="13" y="191.1857">+modifierTrajet()</text><text fill="#000000" font-family="sans-serif" font-size="14" lengthAdjust="spacing" textLength="116.9902" x="13" y="207.4826">+annulerTrajet()</text><text fill="#000000" font-family="sans-serif" font-size="14" lengthAdjust="spacing" textLength="167.6719" x="13" y="223.7795">+accepterReservation()</text><text fill="#000000" font-family="sans-serif" font-size="14" lengthAdjust="spacing" textLength="156.1738" x="13" y="240.0764">+refuserReservation()</text></g><!--class Administrateur--><g class="entity" data-qualified-name="Administrateur" data-source-line="65" id="ent0008"><rect fill="#F1F1F1" height="96.8906" rx="2.5" ry="2.5" style="stroke:#181818;stroke-width:0.5;" width="182.3789" x="35.48" y="323.0369"/><ellipse cx="71.0789" cy="339.0369" fill="#ADD1B2" rx="11" ry="11" style="stroke:#181818;stroke-width:1;"/><path d="M74.0477,344.6775 Q73.4696,344.9744 72.8289,345.115 Q72.1883,345.2713 71.4852,345.2713 Q68.9852,345.2713 67.6571,343.6306 Q66.3446,341.9744 66.3446,338.8494 Q66.3446,335.7244 67.6571,334.0681 Q68.9852,332.4119 71.4852,332.4119 Q72.1883,332.4119 72.8289,332.5681 Q73.4852,332.7244 74.0477,333.0213 L74.0477,335.74 Q73.4227,335.1619 72.8289,334.8963 Q72.2352,334.615 71.6102,334.615 Q70.2664,334.615 69.5789,335.6931 Q68.8914,336.7556 68.8914,338.8494 Q68.8914,340.9431 69.5789,342.0213 Q70.2664,343.0838 71.6102,343.0838 Q72.2352,343.0838 72.8289,342.8181 Q73.4227,342.5369 74.0477,341.9588 L74.0477,344.6775 Z " fill="#000000"/><text fill="#000000" font-family="sans-serif" font-size="14" lengthAdjust="spacing" textLength="104.6035" x="89.6565" y="343.8836">Administrateur</text><line style="stroke:#181818;stroke-width:0.5;" x1="36.48" x2="216.8589" y1="355.0369" y2="355.0369"/><line style="stroke:#181818;stroke-width:1;" x1="36.48" x2="216.8589" y1="363.0369" y2="363.0369"/><text fill="#000000" font-family="sans-serif" font-size="14" lengthAdjust="spacing" textLength="142.9736" x="41.48" y="380.032">+activerUtilisateur()</text><text fill="#000000" font-family="sans-serif" font-size="14" lengthAdjust="spacing" textLength="167.7676" x="41.48" y="396.3289">+desactiverUtilisateur()</text><text fill="#000000" font-family="sans-serif" font-size="14" lengthAdjust="spacing" textLength="170.3789" x="41.48" y="412.6257">+consulterStatistiques()</text></g><!--class Trajet--><g class="entity" data-qualified-name="Trajet" data-source-line="72" id="ent0009"><rect fill="#F1F1F1" height="178.375" rx="2.5" ry="2.5" style="stroke:#181818;stroke-width:0.5;" width="220.8789" x="336.33" y="44.2969"/><ellipse cx="422.08" cy="60.2969" fill="#ADD1B2" rx="11" ry="11" style="stroke:#181818;stroke-width:1;"/><path d="M425.0488,65.9375 Q424.4706,66.2344 423.83,66.375 Q423.1894,66.5313 422.4863,66.5313 Q419.9863,66.5313 418.6581,64.8906 Q417.3456,63.2344 417.3456,60.1094 Q417.3456,56.9844 418.6581,55.3281 Q419.9863,53.6719 422.4863,53.6719 Q423.1894,53.6719 423.83,53.8281 Q424.4863,53.9844 425.0488,54.2813 L425.0488,57 Q424.4238,56.4219 423.83,56.1563 Q423.2363,55.875 422.6113,55.875 Q421.2675,55.875 420.58,56.9531 Q419.8925,58.0156 419.8925,60.1094 Q419.8925,62.2031 420.58,63.2813 Q421.2675,64.3438 422.6113,64.3438 Q423.2363,64.3438 423.83,64.0781 Q424.4238,63.7969 425.0488,63.2188 L425.0488,65.9375 Z " fill="#000000"/><text fill="#000000" font-family="sans-serif" font-size="14" lengthAdjust="spacing" textLength="40.8789" x="442.58" y="65.1436">Trajet</text><line style="stroke:#181818;stroke-width:0.5;" x1="337.33" x2="556.2089" y1="76.2969" y2="76.2969"/><text fill="#000000" font-family="sans-serif" font-size="14" lengthAdjust="spacing" textLength="90.5762" x="342.33" y="93.292">-idTrajet : int</text><text fill="#000000" font-family="sans-serif" font-size="14" lengthAdjust="spacing" textLength="144.2588" x="342.33" y="109.5889">-pointDepart : String</text><text fill="#000000" font-family="sans-serif" font-size="14" lengthAdjust="spacing" textLength="146.6445" x="342.33" y="125.8857">-pointArrivee : String</text><text fill="#000000" font-family="sans-serif" font-size="14" lengthAdjust="spacing" textLength="208.8789" x="342.33" y="142.1826">-dateHeureDepart : DateTime</text><text fill="#000000" font-family="sans-serif" font-size="14" lengthAdjust="spacing" textLength="162.7432" x="342.33" y="158.4795">-placesDisponibles : int</text><text fill="#000000" font-family="sans-serif" font-size="14" lengthAdjust="spacing" textLength="143.5684" x="342.33" y="174.7764">-statut : StatutTrajet</text><line style="stroke:#181818;stroke-width:1;" x1="337.33" x2="556.2089" y1="182.0781" y2="182.0781"/><text fill="#000000" font-family="sans-serif" font-size="14" lengthAdjust="spacing" textLength="121.7002" x="342.33" y="199.0732">+modifierTrajet()</text><text fill="#000000" font-family="sans-serif" font-size="14" lengthAdjust="spacing" textLength="116.9902" x="342.33" y="215.3701">+annulerTrajet()</text></g><!--class Reservation--><g class="entity" data-qualified-name="Reservation" data-source-line="84" id="ent0010"><rect fill="#F1F1F1" height="145.7813" rx="2.5" ry="2.5" style="stroke:#181818;stroke-width:0.5;" width="198.375" x="678.38" y="464.5969"/><ellipse cx="731.4747" cy="480.5969" fill="#ADD1B2" rx="11" ry="11" style="stroke:#181818;stroke-width:1;"/><path d="M734.4435,486.2375 Q733.8654,486.5344 733.2247,486.675 Q732.5841,486.8312 731.881,486.8312 Q729.381,486.8312 728.0529,485.1906 Q726.7404,483.5344 726.7404,480.4094 Q726.7404,477.2844 728.0529,475.6281 Q729.381,473.9719 731.881,473.9719 Q732.5841,473.9719 733.2247,474.1281 Q733.881,474.2844 734.4435,474.5812 L734.4435,477.3 Q733.8185,476.7219 733.2247,476.4562 Q732.631,476.175 732.006,476.175 Q730.6622,476.175 729.9747,477.2531 Q729.2872,478.3156 729.2872,480.4094 Q729.2872,482.5031 729.9747,483.5812 Q730.6622,484.6437 732.006,484.6437 Q732.631,484.6437 733.2247,484.3781 Q733.8185,484.0969 734.4435,483.5187 L734.4435,486.2375 Z " fill="#000000"/><text fill="#000000" font-family="sans-serif" font-size="14" lengthAdjust="spacing" textLength="83.6855" x="751.9747" y="485.4436">Reservation</text><line style="stroke:#181818;stroke-width:0.5;" x1="679.38" x2="875.755" y1="496.5969" y2="496.5969"/><text fill="#000000" font-family="sans-serif" font-size="14" lengthAdjust="spacing" textLength="133.3828" x="684.38" y="513.592">-idReservation : int</text><text fill="#000000" font-family="sans-serif" font-size="14" lengthAdjust="spacing" textLength="186.375" x="684.38" y="529.8889">-dateDemande : DateTime</text><text fill="#000000" font-family="sans-serif" font-size="14" lengthAdjust="spacing" textLength="186.375" x="684.38" y="546.1857">-statut : StatutReservation</text><line style="stroke:#181818;stroke-width:1;" x1="679.38" x2="875.755" y1="553.4875" y2="553.4875"/><text fill="#000000" font-family="sans-serif" font-size="14" lengthAdjust="spacing" textLength="76.1113" x="684.38" y="570.4826">+annuler()</text><text fill="#000000" font-family="sans-serif" font-size="14" lengthAdjust="spacing" textLength="83.9863" x="684.38" y="586.7795">+accepter()</text><text fill="#000000" font-family="sans-serif" font-size="14" lengthAdjust="spacing" textLength="72.4883" x="684.38" y="603.0764">+refuser()</text></g><!--class Notification--><g class="entity" data-qualified-name="Notification" data-source-line="94" id="ent0011"><rect fill="#F1F1F1" height="129.4844" rx="2.5" ry="2.5" style="stroke:#181818;stroke-width:0.5;" width="210.7207" x="672.21" y="299.7369"/><ellipse cx="733.1558" cy="315.7369" fill="#ADD1B2" rx="11" ry="11" style="stroke:#181818;stroke-width:1;"/><path d="M736.1246,321.3775 Q735.5464,321.6744 734.9058,321.815 Q734.2652,321.9712 733.5621,321.9712 Q731.0621,321.9712 729.7339,320.3306 Q728.4214,318.6744 728.4214,315.5494 Q728.4214,312.4244 729.7339,310.7681 Q731.0621,309.1119 733.5621,309.1119 Q734.2652,309.1119 734.9058,309.2681 Q735.5621,309.4244 736.1246,309.7212 L736.1246,312.44 Q735.4996,311.8619 734.9058,311.5962 Q734.3121,311.315 733.6871,311.315 Q732.3433,311.315 731.6558,312.3931 Q730.9683,313.4556 730.9683,315.5494 Q730.9683,317.6431 731.6558,318.7212 Q732.3433,319.7837 733.6871,319.7837 Q734.3121,319.7837 734.9058,319.5181 Q735.4996,319.2369 736.1246,318.6587 L736.1246,321.3775 Z " fill="#000000"/><text fill="#000000" font-family="sans-serif" font-size="14" lengthAdjust="spacing" textLength="80.3291" x="753.6558" y="320.5836">Notification</text><line style="stroke:#181818;stroke-width:0.5;" x1="673.21" x2="881.9307" y1="331.7369" y2="331.7369"/><text fill="#000000" font-family="sans-serif" font-size="14" lengthAdjust="spacing" textLength="130.0264" x="678.21" y="348.732">-idNotification : int</text><text fill="#000000" font-family="sans-serif" font-size="14" lengthAdjust="spacing" textLength="123.3682" x="678.21" y="365.0289">-message : String</text><text fill="#000000" font-family="sans-serif" font-size="14" lengthAdjust="spacing" textLength="198.7207" x="678.21" y="381.3257">-dateNotification : DateTime</text><text fill="#000000" font-family="sans-serif" font-size="14" lengthAdjust="spacing" textLength="87.4043" x="678.21" y="397.6226">-lu : boolean</text><line style="stroke:#181818;stroke-width:1;" x1="673.21" x2="881.9307" y1="404.9244" y2="404.9244"/><text fill="#000000" font-family="sans-serif" font-size="14" lengthAdjust="spacing" textLength="162.2715" x="678.21" y="421.9195">+marquerCommeLue()</text></g><!--link Passager to Utilisateur--><g class="link" data-entity-1="ent0006" data-entity-2="ent0005" data-link-type="extension" data-source-line="106" id="lnk12"><path codeLine="106" d="M222.24,474.0769 C262.17,455.7469 292.2606,441.9348 332.4406,423.4948" fill="none" id="Passager-to-Utilisateur" style="stroke:#181818;stroke-width:1;"/><polygon fill="none" points="348.8,415.9869,329.9379,418.0416,334.9432,428.9479,348.8,415.9869" style="stroke:#181818;stroke-width:1;"/></g><!--link Conducteur to Utilisateur--><g class="link" data-entity-1="ent0007" data-entity-2="ent0005" data-link-type="extension" data-source-line="107" id="lnk13"><path codeLine="107" d="M246.11,247.8369 C279.94,268.7869 301.0963,281.8907 333.4763,301.9407" fill="none" id="Conducteur-to-Utilisateur" style="stroke:#181818;stroke-width:1;"/><polygon fill="none" points="348.78,311.4169,336.6351,296.8395,330.3176,307.0419,348.78,311.4169" style="stroke:#181818;stroke-width:1;"/></g><!--link Administrateur to Utilisateur--><g class="link" data-entity-1="ent0008" data-entity-2="ent0005" data-link-type="extension" data-source-line="108" id="lnk14"><path codeLine="108" d="M217.97,371.4869 C258.84,371.4869 289.21,371.4869 330.84,371.4869" fill="none" id="Administrateur-to-Utilisateur" style="stroke:#181818;stroke-width:1;"/><polygon fill="none" points="348.84,371.4869,330.84,365.4869,330.84,377.4869,348.84,371.4869" style="stroke:#181818;stroke-width:1;"/></g><!--link Conducteur to Trajet--><g class="link" data-entity-1="ent0007" data-entity-2="ent0009" data-link-type="association" data-source-line="114" id="lnk15"><path codeLine="114" d="M246.57,159.1569 C275.86,155.3869 307.1,151.3569 335.94,147.6369" fill="none" id="Conducteur-Trajet" style="stroke:#181818;stroke-width:1;"/><text fill="#000000" font-family="sans-serif" font-size="13" lengthAdjust="spacing" textLength="28.4883" x="277.33" y="148.5538">cree</text><text fill="#000000" font-family="sans-serif" font-size="13" lengthAdjust="spacing" textLength="8.271" x="254.5164" y="170.7264">1</text><text fill="#000000" font-family="sans-serif" font-size="13" lengthAdjust="spacing" textLength="23.0356" x="305.1044" y="161.0951">0..*</text></g><!--link Passager to Reservation--><g class="link" data-entity-1="ent0006" data-entity-2="ent0010" data-link-type="association" data-source-line="115" id="lnk16"><path codeLine="115" d="M222.02,520.3869 C343.73,524.1469 554.44,530.6369 678.11,534.4469" fill="none" id="Passager-Reservation" style="stroke:#181818;stroke-width:1;"/><text fill="#000000" font-family="sans-serif" font-size="13" lengthAdjust="spacing" textLength="53.6313" x="420.27" y="519.5538">effectue</text><text fill="#000000" font-family="sans-serif" font-size="13" lengthAdjust="spacing" textLength="8.271" x="229.6374" y="533.2555">1</text><text fill="#000000" font-family="sans-serif" font-size="13" lengthAdjust="spacing" textLength="23.0356" x="647.3096" y="546.832">0..*</text></g><!--link Trajet to Reservation--><g class="link" data-entity-1="ent0009" data-entity-2="ent0010" data-link-type="association" data-source-line="116" id="lnk17"><path codeLine="116" d="M540.69,223.0269 C546.34,228.8769 551.89,234.7269 557.21,240.4869 C597.25,283.8369 614.55,290.3569 642.21,342.4869 C664.75,384.9769 646.36,405.9069 672.21,446.4869 C676.08,452.5669 680.48,458.4669 685.23,464.1569" fill="none" id="Trajet-Reservation" style="stroke:#181818;stroke-width:1;"/><text fill="#000000" font-family="sans-serif" font-size="13" lengthAdjust="spacing" textLength="53.3838" x="588.21" y="268.5538">contient</text><text fill="#000000" font-family="sans-serif" font-size="13" lengthAdjust="spacing" textLength="8.271" x="539.8663" y="242.8321">1</text><text fill="#000000" font-family="sans-serif" font-size="13" lengthAdjust="spacing" textLength="23.0356" x="652.3347" y="453.5259">0..*</text></g><!--link Utilisateur to Notification--><g class="link" data-entity-1="ent0005" data-entity-2="ent0011" data-link-type="association" data-source-line="117" id="lnk18"><path codeLine="117" d="M544.64,369.4169 C584.61,368.5669 631.03,367.5769 671.79,366.7169" fill="none" id="Utilisateur-Notification" style="stroke:#181818;stroke-width:1;"/><text fill="#000000" font-family="sans-serif" font-size="13" lengthAdjust="spacing" textLength="37.1528" x="596.21" y="363.5538">recoit</text><text fill="#000000" font-family="sans-serif" font-size="13" lengthAdjust="spacing" textLength="8.271" x="552.1313" y="381.8879">1</text><text fill="#000000" font-family="sans-serif" font-size="13" lengthAdjust="spacing" textLength="23.0356" x="641.2779" y="379.4119">0..*</text></g><?plantuml-src ZLLDZvim4BtpAwnSjX_AQdjTgPKGkDr8MJO2qclbXI5n2pQrJGxz-EyTcomOia6DbCX-unc_yRoP66vg8BkQ6QYaQe2KG0fvajnqYXs0h4dCsK6nvcogcTQWISK5guD0_-2YPMZj3Q4nYZzt1ZQ551d_1UGkgA4on4YY-E5eICaL58PB4GGt7wzyWXj2a_rZjd02HDUGL2Bptm4Xkp3BmYyqnMNqbCJxAATxkmdZnqsooV8qTC3VeFVB33EToHNx3iRvF-s_qZHtte-xBRMhC4dsMugBdAOOXCwSKz2WJimcuYBGv5kOvpJ9hKiOHNINKxjCwUTzvbPzG1TdAV5eYxdGfTG3zz9aRtZDDLQjKux1cl3In-u95yRXGZQuox0ouk20Li45LiXEAGxr53LGGtkK0gPm8qqCEok41wQFKvkoHRbtjN5xXjMk47YMY31XiJN-l2UiCqSGQEIWthnrK0ae6u7w6916bkx0JicArmZ-VSdVNe_wF2VVXqHf7K7PRr_S8Mp3H0dAAzhPmeJewhbXk2AIekmAxuMH3OnWU2spLibMwXc9bqmcuFd-ALOKq9hNs2geEdsLRLWsN71jbAU9yqiZqHCeJnt3m-YhDgo4xchaOGMFOVdF3hH_dzS_LdldxIYxLk8g1fmEPYO_QmXHRIUOwQf40Wz80GQt696SDxsKsfeLe6EkModuSurJQBnDkxPquSRc7f_Wlrv_I6tUtJO_7nkljOpZNbvpjZD6dhzNcPx1hFBJSll44cdxfPWocu0ZjGPSWro-yEpyX7JTlIReXYcileea_WbiE-WPBKsn1vfkSfp82uU6_bsl_tpofrdWjTs5RIRo2_iYgvHkmtppb6IOKXIcyIO9jvjyUTXwP5OVLdWXMTtTthvRaK7lXG8OivaUcee6gWfdMmV1sNVfBBQVuJWU0t-cJnrcTSJXXt_Q_m00?></g></svg>